<?xml version="1.0" encoding="UTF-8" standalone="no"?>
<!-- Created with Inkscape (http://www.inkscape.org/) -->

<svg
   xmlns:dc="http://purl.org/dc/elements/1.1/"
   xmlns:cc="http://creativecommons.org/ns#"
   xmlns:rdf="http://www.w3.org/1999/02/22-rdf-syntax-ns#"
   xmlns:svg="http://www.w3.org/2000/svg"
   xmlns="http://www.w3.org/2000/svg"
   xmlns:sodipodi="http://sodipodi.sourceforge.net/DTD/sodipodi-0.dtd"
   xmlns:inkscape="http://www.inkscape.org/namespaces/inkscape"
   width="64px"
   height="64px"
   id="svg3235"
   version="1.1"
   inkscape:version="0.48.1 r9760"
   sodipodi:docname="New document 9">
  <defs
     id="defs3237" />
  <sodipodi:namedview
     id="base"
     pagecolor="#ffffff"
     bordercolor="#666666"
     borderopacity="1.0"
     inkscape:pageopacity="0.0"
     inkscape:pageshadow="2"
     inkscape:zoom="5.5"
     inkscape:cx="32"
     inkscape:cy="32"
     inkscape:current-layer="layer1"
     showgrid="true"
     inkscape:document-units="px"
     inkscape:grid-bbox="true"
     inkscape:window-width="858"
     inkscape:window-height="783"
     inkscape:window-x="2"
     inkscape:window-y="90"
     inkscape:window-maximized="0" />
  <metadata
     id="metadata3240">
    <rdf:RDF>
      <cc:Work
         rdf:about="">
        <dc:format>image/svg+xml</dc:format>
        <dc:type
           rdf:resource="http://purl.org/dc/dcmitype/StillImage" />
        <dc:title></dc:title>
      </cc:Work>
    </rdf:RDF>
  </metadata>
  <g
     id="layer1"
     inkscape:label="Layer 1"
     inkscape:groupmode="layer">
    <rect
       x="30.312773"
       y="18.595375"
       id="rect3620-8-8-7"
       rx="0"
       ry="0"
       height="15.965982"
       width="15.965981"
       style="fill:none;stroke:none;display:inline" />
    <path
       inkscape:connector-curvature="0"
       d="m 24.836023,25.342367 c 0.05289,0.577021 0.109636,1.152115 0.207928,1.723468 0.12238,0.594523 0.1787,1.198117 0.391924,1.76924 0.184016,0.396624 0.30014,0.817139 0.428427,1.233482 0.144692,0.344336 0.247632,0.698692 0.30576,1.067176 0.03152,0.342668 0.134036,0.670512 0.133148,1.015936 0.02624,0.363856 0.03292,0.729316 0.07574,1.091863 0.07774,0.447487 0.254376,0.663347 0.64316,0.867033 0.486074,0.161776 0.999889,0.239488 1.50657,0.311108 0.747248,0.08731 1.500743,0.09081 2.252012,0.100068 1.275143,0.03664 2.550725,0.02804 3.826127,0.01268 0.576063,0.0916 1.212497,0.30054 0.933102,0.997864 0,0 -2.355112,1.054623 -2.355112,1.054623 l 0,0 c 0.05079,-0.06637 0.125727,-0.117199 0.158847,-0.193916 0.131021,-0.303473 -0.643669,-0.394519 -0.739305,-0.4035 -1.285371,-0.01437 -2.570682,-0.01706 -3.855954,0.005 -0.767535,-0.008 -1.538392,-0.01068 -2.300928,-0.10799 -0.532974,-0.08512 -1.082782,-0.148843 -1.577987,-0.375141 -0.412332,-0.246913 -0.663347,-0.59586 -0.756888,-1.074959 -0.05558,-0.372257 -0.06476,-0.749773 -0.116521,-1.122868 0.03253,-0.336313 -0.06796,-0.643618 -0.103929,-0.97623 -0.0459,-0.358396 -0.137018,-0.703441 -0.284095,-1.034755 C 23.48569,30.88875 23.380813,30.469204 23.207603,30.07236 22.9882,29.484353 22.921931,28.869632 22.810199,28.254942 c -0.108419,-0.563968 -0.16858,-1.133724 -0.260545,-1.699888 0,0 2.286369,-1.212935 2.286369,-1.212935 z"
       id="path5436"
       style="fill:none;stroke:none;display:inline" />
    <path
       inkscape:connector-curvature="0"
       d="m 32.976648,25.443412 c -0.04261,0.31896 -0.0953,0.636743 -0.12776,0.956891 -0.08622,0.849749 -0.164708,2.260573 -0.201432,3.069071 -0.0912,2.008371 -0.121592,4.016302 -0.134992,6.02638 -0.02496,2.066198 0.07843,4.137285 -0.007,6.202765 -0.03452,0.567348 -0.214972,0.889832 -0.632871,1.2473 -0.878908,0.666512 -1.856654,1.230408 -2.878856,1.648028 0,0 2.014567,-1.598132 2.014567,-1.598132 l 0,0 c 1.593492,-0.788044 -2.707344,1.576728 -1.518607,0.908892 0.415256,-0.321872 0.693284,-0.52518 0.777604,-1.091812 0.303272,-2.10314 0.278228,-4.247441 0.37122,-6.36498 0.05748,-3.293842 0.08282,-6.589021 0.07264,-9.883192 0,0 2.265692,-1.121211 2.265692,-1.121211 z"
       id="path5438"
       style="fill:none;stroke:none;display:inline" />
    <path
       inkscape:connector-curvature="0"
       d="m 35.060698,31.359277 c -0.228244,2.151775 -0.618982,4.28031 -0.898217,6.42552 -0.29048,2.156594 -0.519413,4.321462 -0.64292,6.494194 -0.05668,0.673452 -0.01888,1.350632 -0.05269,2.024416 0.02156,0.37908 -0.12632,0.626136 -0.420993,0.850616 -1.011674,0.594476 -2.026492,1.351772 -3.196758,1.635116 0,0 2.028488,-1.562548 2.028488,-1.562548 l 0,0 c 0.955903,-0.32128 2.606197,-1.274268 -1.236157,0.853508 0.337392,-0.14804 0.528235,-0.24236 0.523435,-0.635416 0.119148,-0.680488 0.03192,-1.391624 0.16508,-2.07324 0.246024,-2.200652 0.556933,-4.393192 0.82145,-6.591616 0.05079,-0.476844 0.0956,-0.954377 0.152476,-1.430523 0.191892,-1.60476 0.526937,-3.199263 0.469819,-4.82473 0,0 2.287037,-1.165297 2.287037,-1.165297 z"
       id="path5440"
       style="fill:none;stroke:none;display:inline" />
    <path
       inkscape:connector-curvature="0"
       id="rect218858"
       d="m 31.810143,24.392917 c -0.436071,-0.109657 -0.222611,0.594823 -0.287221,1.114321 l -0.720794,5.795559 -20.315953,0 c -0.16532,0 -0.307484,0.03288 -0.4484,0.107724 -0.3870075,0 -0.6898451,0.315888 -0.6898451,0.718556 l 0,8.443046 c 0,0.402648 0.302836,0.718552 0.6898451,0.718552 l 1.552153,0 c 0.387008,0 0.689846,-0.31588 0.689846,-0.718552 l 0,-5.856241 18.522354,0 0,5.389177 c 0,0.5235 0.378168,0.93412 0.827815,0.93412 l 0.896799,0 c 0.449636,0 0.827815,-0.41062 0.827815,-0.93412 l 0,-5.389177 18.729307,0 0,5.856241 c 0,0.402648 0.33732,0.718552 0.724336,0.718552 l 1.517648,0 c 0.387,0 0.689848,-0.31588 0.689848,-0.718552 l 0,-8.443046 c 0,-0.402668 -0.3028,-0.718556 -0.689848,-0.718556 l -0.24144,0 c -0.14092,-0.07496 -0.28308,-0.107724 -0.4484,-0.107724 l -20.281464,0 c 0,0 -0.900988,-8.138133 -0.900988,-5.795559 0,0.5235 0.509238,-0.82447 0.07318,-0.93411 z"
       style="fill:#cecece;fill-opacity:1;stroke:#cecece;stroke-width:1.06971395;stroke-opacity:1;display:inline"
       sodipodi:nodetypes="sscscsssssccssssccsssssscscsss" />
    <path
       style="fill:#cecece;fill-opacity:1;stroke:#cecece;stroke-width:1.20162058;stroke-opacity:1"
       d="m 19.681817,0.45892015 c -2.781911,0 -4.999999,2.21809005 -4.999999,5.00000005 l 0,10.7499988 c 0,2.781911 2.218088,5.125 4.999999,5.125 l 24.999999,0 c 2.781912,0 5,-2.343089 5,-5.125 l 0,-10.7499988 c 0,-2.78191 -2.218088,-5.00000005 -5,-5.00000005 l -24.999999,0 z m 1.125,15.24999885 22.749999,0 c 2.113272,0 3.875,0.708886 3.875,1.5 l 0,1.25 c 0,0.791114 -1.761728,1.375 -3.875,1.375 l -22.749999,0 c -2.113273,0 -3.875,-0.583886 -3.875,-1.375 l 0,-1.25 c 0,-0.791114 1.761727,-1.5 3.875,-1.5 z"
       id="rect220380"
       inkscape:connector-curvature="0" />
    <path
       style="fill:#cecece;fill-opacity:1;stroke:#cecece;stroke-width:0.95792586;stroke-opacity:1"
       d="m 27.306817,43.958919 c -2.540028,0 -4.625,2.060484 -4.625,4.5 l 0,4.625 c 0,2.439516 2.084972,4.375 4.625,4.375 l 9.749999,0 c 2.540028,0 4.625,-1.935484 4.625,-4.375 l 0,-4.625 c 0,-2.439516 -2.084972,-4.5 -4.625,-4.5 l -9.749999,0 z m 0.75,4.625 8.249999,0 c 1.77639,0 3.25,0.94868 3.25,2.125 0,1.17632 -1.47361,2.125 -3.25,2.125 l -8.249999,0 c -1.77639,0 -3.25,-0.94868 -3.25,-2.125 0,-1.17632 1.47361,-2.125 3.25,-2.125 z"
       id="rect219732-4"
       inkscape:connector-curvature="0" />
    <rect
       style="fill:#cecece;fill-opacity:1;stroke:#cecece;stroke-width:0.95792586;stroke-opacity:1"
       id="rect219732-4-7"
       width="18.908833"
       height="13.465887"
       x="44.794025"
       y="44.015221"
       ry="4.4034553"
       rx="4.584887" />
    <rect
       style="fill:#cecece;fill-opacity:1;stroke:#cecece;stroke-width:0.95792586;stroke-opacity:1"
       id="rect219732-4-79"
       width="18.908833"
       height="13.465887"
       x="0.66078067"
       y="44.015221"
       ry="4.4034553"
       rx="4.584887" />
  </g>
</svg>
