<?xml version="1.0" encoding="UTF-8" standalone="no"?>
<!-- Created with Inkscape (http://www.inkscape.org/) -->

<svg
   xmlns:osb="http://www.openswatchbook.org/uri/2009/osb"
   xmlns:dc="http://purl.org/dc/elements/1.1/"
   xmlns:cc="http://creativecommons.org/ns#"
   xmlns:rdf="http://www.w3.org/1999/02/22-rdf-syntax-ns#"
   xmlns:svg="http://www.w3.org/2000/svg"
   xmlns="http://www.w3.org/2000/svg"
   xmlns:sodipodi="http://sodipodi.sourceforge.net/DTD/sodipodi-0.dtd"
   xmlns:inkscape="http://www.inkscape.org/namespaces/inkscape"
   width="16px"
   height="16px"
   id="svg3069"
   version="1.1"
   inkscape:version="0.48.1 r9760"
   sodipodi:docname="drawing.svg">
  <defs
     id="defs3071">
    <linearGradient
       id="linearGradient5336"
       osb:paint="solid">
      <stop
         style="stop-color:#000000;stop-opacity:1;"
         offset="0"
         id="stop5338" />
    </linearGradient>
    <linearGradient
       id="linearGradient3116">
      <stop
         style="stop-color:#ffffff;stop-opacity:1;"
         offset="0"
         id="stop3118" />
      <stop
         style="stop-color:#ffffff;stop-opacity:0;"
         offset="1"
         id="stop3120" />
    </linearGradient>
  </defs>
  <sodipodi:namedview
     id="base"
     pagecolor="#ffffff"
     bordercolor="#666666"
     borderopacity="1.0"
     inkscape:pageopacity="0.0"
     inkscape:pageshadow="2"
     inkscape:zoom="20.722518"
     inkscape:cx="-5.5888728"
     inkscape:cy="8.4987708"
     inkscape:current-layer="layer1"
     showgrid="true"
     inkscape:grid-bbox="true"
     inkscape:document-units="px"
     inkscape:window-width="1646"
     inkscape:window-height="1077"
     inkscape:window-x="0"
     inkscape:window-y="26"
     inkscape:window-maximized="0" />
  <metadata
     id="metadata3074">
    <rdf:RDF>
      <cc:Work
         rdf:about="">
        <dc:format>image/svg+xml</dc:format>
        <dc:type
           rdf:resource="http://purl.org/dc/dcmitype/StillImage" />
        <dc:title />
      </cc:Work>
    </rdf:RDF>
  </metadata>
  <g
     id="layer1"
     inkscape:label="Layer 1"
     inkscape:groupmode="layer">
    <rect
       x="7.5327387"
       y="4.6903634"
       id="rect3620-8-8-7"
       rx="0"
       ry="0"
       height="3.9914956"
       width="3.9914954"
       style="fill:none;stroke:none;display:inline" />
    <path
       inkscape:connector-curvature="0"
       d="m 6.1635516,6.377112 c 0.013222,0.1442551 0.027409,0.2880288 0.051982,0.430867 0.030595,0.1486308 0.044675,0.2995293 0.097981,0.4423101 0.046004,0.099156 0.075035,0.2042847 0.1071068,0.3083704 0.036173,0.086084 0.061908,0.1746729 0.07644,0.2667941 0.00788,0.085667 0.033509,0.1676278 0.033287,0.2539838 0.00656,0.090964 0.00823,0.182329 0.018935,0.2729659 0.019434,0.1118717 0.063594,0.1658367 0.1607899,0.2167582 0.1215186,0.040444 0.2499724,0.059872 0.3766425,0.077777 0.186812,0.021828 0.3751857,0.022702 0.563003,0.025017 0.3187858,0.00916 0.6376813,0.00701 0.9565319,0.00317 0.1440157,0.022901 0.3031242,0.075135 0.2332755,0.249466 0,0 -0.588778,0.2636557 -0.588778,0.2636557 l 0,0 C 8.2634449,9.1716553 8.28218,9.1589474 8.2904599,9.1397682 8.3232151,9.0638999 8.1295427,9.0411384 8.1056337,9.0388932 7.7842909,9.0353008 7.462963,9.0346273 7.1416451,9.0401405 6.9497614,9.0381448 6.757047,9.0374712 6.5664132,9.013143 6.4331696,8.9918634 6.2957175,8.9759323 6.1719163,8.9193578 6.0688334,8.8576294 6.0060796,8.7703927 5.9826944,8.6506179 5.968799,8.5575537 5.9665039,8.4631748 5.953564,8.369901 5.9616967,8.2858227 5.9365752,8.2089964 5.9275818,8.1258436 5.9161063,8.0362445 5.8933273,7.9499832 5.8565582,7.8671547 5.8259684,7.7637051 5.7997492,7.6588186 5.7564465,7.5596075 5.7015958,7.4126057 5.6850286,7.2589256 5.6570957,7.1052531 5.6299909,6.964261 5.6149505,6.821822 5.5919594,6.680281 c 0,0 0.5715922,-0.3032339 0.5715922,-0.3032339 z"
       id="path5436"
       style="fill:none;stroke:none;display:inline" />
    <path
       inkscape:connector-curvature="0"
       d="m 8.1987079,6.4023732 c -0.010652,0.07974 -0.023824,0.1591858 -0.03194,0.2392228 -0.021554,0.2124373 -0.041177,0.5651433 -0.050358,0.7672677 -0.022801,0.5020927 -0.030398,1.0040756 -0.033748,1.506595 -0.00624,0.5165494 0.019608,1.0343212 -0.00175,1.5506913 -0.00863,0.141837 -0.053743,0.222458 -0.1582178,0.311825 -0.2197269,0.166628 -0.4641636,0.307602 -0.7197141,0.412007 0,0 0.5036419,-0.399533 0.5036419,-0.399533 l 0,0 C 8.104995,10.593438 7.0297859,11.184631 7.3269702,11.017672 7.430784,10.937204 7.500291,10.886377 7.521371,10.744719 c 0.075818,-0.525785 0.069557,-1.0618604 0.092805,-1.591245 0.014369,-0.8234605 0.020706,-1.6472552 0.018161,-2.4707981 0,0 0.5664232,-0.2803027 0.5664232,-0.2803027 z"
       id="path5438"
       style="fill:none;stroke:none;display:inline" />
    <path
       inkscape:connector-curvature="0"
       d="M 8.7197203,7.8813395 C 8.6626594,8.4192833 8.564975,8.951417 8.4951662,9.4877194 c -0.07262,0.5391486 -0.1298533,1.0803656 -0.16073,1.6235486 -0.01417,0.168363 -0.00472,0.337658 -0.013172,0.506104 0.00539,0.09477 -0.03158,0.156534 -0.1052482,0.212654 -0.2529186,0.148619 -0.5066231,0.337943 -0.7991897,0.408779 0,0 0.507122,-0.390637 0.507122,-0.390637 l 0,0 c 0.2389758,-0.08032 0.6515493,-0.318567 -0.3090391,0.213377 0.084348,-0.03701 0.1320587,-0.06059 0.1308587,-0.158854 0.029787,-0.170122 0.00798,-0.347906 0.04127,-0.51831 0.061506,-0.550163 0.1392333,-1.098298 0.2053624,-1.6479041 0.012698,-0.119211 0.023899,-0.2385942 0.038119,-0.3576306 0.047973,-0.4011902 0.1317343,-0.7998158 0.1174548,-1.2061825 0,0 0.5717593,-0.2913243 0.5717593,-0.2913243 z"
       id="path5440"
       style="fill:none;stroke:none;display:inline" />
    <path
       inkscape:connector-curvature="0"
       id="rect218858"
       d="M 7.9070816,6.1397494 C 7.7980638,6.1123352 7.8514289,6.2884552 7.8352764,6.4183298 l -0.1801985,1.4488896 -5.0789886,0 c -0.04133,0 -0.076871,0.00822 -0.1120998,0.026931 -0.096752,0 -0.1724614,0.078972 -0.1724614,0.1796392 l 0,2.1107614 c 0,0.100662 0.075709,0.179638 0.1724614,0.179638 l 0.3880381,0 c 0.096752,0 0.1724614,-0.07897 0.1724614,-0.179638 l 0,-1.4640604 4.6305889,0 0,1.3472944 c 0,0.130875 0.094542,0.23353 0.2069537,0.23353 l 0.2241998,0 c 0.112409,0 0.2069537,-0.102655 0.2069537,-0.23353 l 0,-1.3472944 4.6823269,0 0,1.4640604 c 0,0.100662 0.08433,0.179638 0.181084,0.179638 l 0.379412,0 c 0.09675,0 0.172462,-0.07897 0.172462,-0.179638 l 0,-2.1107614 c 0,-0.1006672 -0.0757,-0.1796392 -0.172462,-0.1796392 l -0.06036,0 c -0.03523,-0.01874 -0.07077,-0.026931 -0.1121,-0.026931 l -5.070366,0 c 0,0 -0.225247,-2.0345332 -0.225247,-1.4488896 0,0.130875 0.1273095,-0.2061175 0.018294,-0.2335275 z"
       style="fill:#cecece;fill-opacity:1;stroke:#cecece;stroke-width:0.26742849;stroke-opacity:1;display:inline"
       sodipodi:nodetypes="sscscsssssccssssccsssssscscsss" />
    <path
       style="fill:#cecece;fill-opacity:1;stroke:#cecece;stroke-width:0.30040514000000001;stroke-opacity:1"
       d="M 4.875 0.15625 C 4.1795223 0.15625 3.625 0.7107723 3.625 1.40625 L 3.625 4.09375 C 3.625 4.7892277 4.1795223 5.375 4.875 5.375 L 11.125 5.375 C 11.820478 5.375 12.375 4.7892277 12.375 4.09375 L 12.375 1.40625 C 12.375 0.7107723 11.820478 0.15625 11.125 0.15625 L 4.875 0.15625 z M 5.15625 3.96875 L 10.84375 3.96875 C 11.372068 3.96875 11.8125 4.1459715 11.8125 4.34375 L 11.8125 4.65625 C 11.8125 4.8540285 11.372068 5 10.84375 5 L 5.15625 5 C 4.6279319 5 4.1875 4.8540285 4.1875 4.65625 L 4.1875 4.34375 C 4.1875 4.1459715 4.6279319 3.96875 5.15625 3.96875 z "
       id="rect220380" />
    <path
       style="fill:#cecece;fill-opacity:1;stroke:#cecece;stroke-width:0.23948146;stroke-opacity:1"
       d="M 6.78125 11.03125 C 6.1462431 11.03125 5.625 11.546371 5.625 12.15625 L 5.625 13.3125 C 5.625 13.922379 6.1462431 14.40625 6.78125 14.40625 L 9.21875 14.40625 C 9.8537569 14.40625 10.375 13.922379 10.375 13.3125 L 10.375 12.15625 C 10.375 11.546371 9.8537569 11.03125 9.21875 11.03125 L 6.78125 11.03125 z M 6.96875 12.1875 L 9.03125 12.1875 C 9.4753475 12.1875 9.84375 12.42467 9.84375 12.71875 C 9.84375 13.01283 9.4753475 13.25 9.03125 13.25 L 6.96875 13.25 C 6.5246525 13.25 6.15625 13.01283 6.15625 12.71875 C 6.15625 12.42467 6.5246525 12.1875 6.96875 12.1875 z "
       id="rect219732-4" />
    <rect
       style="fill:#cecece;fill-opacity:1;stroke:#cecece;stroke-width:0.23948146;stroke-opacity:1"
       id="rect219732-4-7"
       width="4.7272081"
       height="3.3664718"
       x="11.153051"
       y="11.045325"
       ry="1.1008638"
       rx="1.1462218" />
    <rect
       style="fill:#cecece;fill-opacity:1;stroke:#cecece;stroke-width:0.23948146;stroke-opacity:1"
       id="rect219732-4-79"
       width="4.7272081"
       height="3.3664718"
       x="0.11974075"
       y="11.045325"
       ry="1.1008638"
       rx="1.1462218" />
  </g>
</svg>
